<svg xmlns="http://www.w3.org/2000/svg" version="1.1" viewBox="-5.0 -10.0 110.0 135.0">
 <g>
  <path d="m27.555 48.898c0.30078 0.30078 0.70312 0.60156 1.0039 0.80078 0.19922 0.10156 0.40234 0.30078 0.60156 0.40234 0.10156 0.10156 0.30078 0.10156 0.40234 0 0.10156-0.10156 0.19922-0.19922 0.19922-0.40234-0.10156-0.40234-0.10156-0.70312-0.19922-1.0039l-0.10156-0.5c-0.10156-0.30078-0.10156-0.5-0.19922-0.60156v-0.10156s0.10156-0.10156 0.19922-0.10156c0.10156-0.10156 0.19922-0.19922 0.40234-0.30078 0.40234-0.30078 0.80078-0.60156 1.1016-0.80078 0.10156-0.10156 0.19922-0.19922 0.19922-0.30078 0-0.19922-0.10156-0.30078-0.10156-0.30078-0.10156-0.30078-0.60156-0.30078-0.90234-0.30078h-1.4023c-0.30078 0-0.30078 0-0.40234-0.40234-0.10156-0.5-0.19922-0.90234-0.40234-1.4023l-0.10156-0.30078c0-0.10156-0.19922-0.19922-0.30078-0.30078-0.10156 0-0.30078 0.10156-0.40234 0.19922l-0.09375 0.30859c-0.30078 0.5-0.5 1.0039-0.60156 1.5039 0 0.10156-0.10156 0.19922-0.10156 0.30078-0.10156 0.10156-0.19922 0-0.30078 0-0.40234-0.10156-0.80078 0-1.3008 0h-0.70312c-0.19922 0-0.30078 0.10156-0.40234 0.30078 0 0.19922 0 0.30078 0.10156 0.40234 0.30078 0.19922 0.60156 0.5 0.90234 0.70312 0.30078 0.30078 0.60156 0.5 0.90234 0.70312 0.10156 0.10156 0.10156 0.19922 0.10156 0.30078-0.30078 0.5-0.40234 1.1016-0.60156 1.6016l-0.10156 0.40234c0 0.10156 0 0.30078 0.10156 0.40234l0.10156 0.10156c0.10156 0.10156 0.19922 0.10156 0.30078 0.10156s0.10156 0 0.19922-0.10156c0.60156-0.40234 1.2031-0.80078 1.7031-1.2031 0.097656-0.21094 0.19922-0.21094 0.19922-0.10937z"/>
  <path d="m42.285 26.555c-0.10156-0.10156-0.19922-0.10156-0.30078-0.10156h-2.0039c-0.10156 0-0.19922 0-0.19922-0.19922-0.10156-0.40234-0.19922-0.70312-0.30078-1.0039-0.10156-0.30078-0.19922-0.60156-0.30078-1.0039 0-0.19922-0.19922-0.30078-0.30078-0.30078-0.19922 0-0.30078 0.10156-0.40234 0.19922l-0.19922 0.40234c-0.19922 0.60156-0.5 1.1016-0.60156 1.6016-0.10156 0.30078-0.10156 0.30078-0.40234 0.30078h-2.0039c-0.19922 0-0.30078 0.10156-0.40234 0.30078 0 0.19922 0 0.30078 0.10156 0.40234 0.30078 0.19922 0.5 0.40234 0.70312 0.5 0.30078 0.19922 0.60156 0.5 1.0039 0.70312 0.10156 0.10156 0.10156 0.19922 0 0.40234-0.19922 0.60156-0.40234 1.2031-0.60156 1.9023v0.10156c0 0.40234 0.40234 0.60156 0.70312 0.40234 0.30078-0.19922 0.60156-0.40234 0.90234-0.60156 0.30078-0.19922 0.5-0.40234 0.80078-0.60156 0.19922-0.10156 0.19922-0.10156 0.30078 0 0.30078 0.30078 0.70312 0.60156 1.0039 0.80078 0.19922 0.10156 0.40234 0.30078 0.60156 0.40234 0.10156 0.10156 0.19922 0.10156 0.19922 0.10156h0.19922c0.10156-0.10156 0.19922-0.19922 0.19922-0.40234-0.10156-0.70312-0.19922-1.4023-0.5-2.0039-0.10156-0.30078-0.10156-0.30078 0.10156-0.5 0.5-0.19922 0.90234-0.60156 1.2031-0.90234 0.10156-0.10156 0.19922-0.19922 0.30078-0.30078 0.10156-0.10156 0.10156-0.19922 0.10156-0.30078 0-0.10156 0-0.19922-0.10156-0.30078z"/>
  <path d="m64.129 26.953c-0.10156-0.10156-0.19922-0.19922-0.30078-0.19922h-2.1055c-0.19922 0-0.19922 0-0.19922-0.10156-0.10156-0.30078-0.19922-0.70312-0.30078-1.0039-0.10156-0.30078-0.19922-0.70313-0.30078-1.0039 0-0.19922-0.19922-0.30078-0.40234-0.30078h-0.10156c-0.19922 0-0.30078 0.10156-0.40234 0.30078s-0.19922 0.5-0.19922 0.70312c-0.19922 0.40234-0.30078 0.90234-0.40234 1.3008-0.10156 0.19922-0.19922 0.19922-0.19922 0.19922h-2.0039c-0.19922 0-0.30078 0.10156-0.30078 0.19922-0.10156 0.10156 0 0.30078 0.10156 0.40234 0.40234 0.40234 0.80078 0.70312 1.2031 1.0039 0.19922 0.10156 0.30078 0.19922 0.5 0.40234 0.10156 0.10156 0.19922 0.10156 0.30078 0.10156-0.30078 0.70312-0.5 1.3008-0.70312 1.9023 0 0.10156 0 0.30078 0.10156 0.40234 0.10156 0.10156 0.30078 0.10156 0.40234 0 0.60156-0.30078 1.3008-0.60156 1.7031-1.1016 0.19922-0.19922 0.30078-0.19922 0.60156 0 0.19922 0.19922 0.5 0.30078 0.70312 0.5 0.30078 0.19922 0.60156 0.40234 0.90234 0.70312 0.10156 0.10156 0.19922 0.10156 0.19922 0.10156 0.10156 0 0.10156 0 0.19922-0.10156 0.10156-0.10156 0.19922-0.30078 0.19922-0.40234-0.10156-0.60156-0.30078-1.1016-0.5-1.5039-0.10156-0.19922-0.10156-0.40234-0.19922-0.60156-0.10156-0.19922 0-0.19922 0-0.19922 0.60156-0.30078 1.2031-0.70312 1.7031-1.1016 0.10156-0.10156 0.19922-0.30078 0.10156-0.40234-0.20313-0.097656-0.20313-0.19922-0.30078-0.19922z"/>
  <path d="m71.844 56.715h-0.70312c-0.5 0-0.90234 0-1.4023 0.10156 0 0-0.10156 0-0.10156-0.19922-0.10156-0.40234-0.19922-0.70313-0.30078-1.1016-0.10156-0.30078-0.19922-0.60156-0.30078-1.0039 0-0.19922-0.19922-0.30078-0.30078-0.30078-0.19922 0-0.30078 0.10156-0.40234 0.19922-0.30078 0.80078-0.5 1.4023-0.70312 2.0039 0 0.19922-0.10156 0.19922-0.30078 0.19922h-2.0039c-0.19922 0-0.30078 0.10156-0.40234 0.19922-0.10156 0.10156 0 0.30078 0.10156 0.40234 0.30078 0.30078 0.70312 0.5 1.0039 0.70312 0.19922 0.19922 0.5 0.30078 0.70312 0.5 0.19922 0.19922 0.19922 0.19922 0.19922 0.40234l0.40234 0.10156-0.40234-0.10156c-0.19922 0.60156-0.40234 1.2031-0.60156 1.9023 0 0.10156 0 0.19922 0.10156 0.30078 0 0.10156 0.10156 0.19922 0.19922 0.30078h0.19922c0.10156 0 0.19922 0 0.19922-0.10156 0.19922-0.19922 0.5-0.40234 0.70312-0.5 0.30078-0.19922 0.5-0.40234 0.80078-0.60156 0.10156-0.10156 0.19922-0.19922 0.5 0 0.30078 0.19922 0.5 0.40234 0.80078 0.60156 0.19922 0.19922 0.5 0.30078 0.70312 0.5 0.10156 0.10156 0.30078 0.10156 0.40234 0 0.10156-0.10156 0.19922-0.19922 0.19922-0.40234-0.10156-0.70312-0.19922-1.2031-0.5-1.9023-0.19922-0.40234-0.10156-0.5 0.10156-0.60156 0.40234-0.30078 0.80078-0.60156 1.2031-0.90234l0.19922-0.19922c0.10156-0.10156 0.10156-0.19922 0.10156-0.30078 0-0.19922-0.10156-0.30078-0.10156-0.30078 0.003906 0.19922-0.097656 0.10156-0.29688 0.10156z"/>
  <path d="m41.082 64.828h-1.4023-0.10156s-0.10156-0.30078-0.10156-0.40234c-0.19922-0.60156-0.40234-1.2031-0.60156-2.0039 0-0.19922-0.19922-0.30078-0.30078-0.30078-0.19922 0-0.30078 0.10156-0.40234 0.19922l-0.19922 0.40234c-0.19922 0.60156-0.5 1.2031-0.5 1.7031-0.10156 0.19922-0.10156 0.19922-0.30078 0.19922h-2.1055c-0.19922 0-0.30078 0.10156-0.40234 0.19922-0.10156 0.10156 0 0.30078 0.10156 0.40234 0.5 0.40234 0.90234 0.70313 1.4023 1.0039l0.30078 0.19922c0.19922 0.19922 0.19922 0.30078 0.10156 0.5v0.10156c-0.19922 0.60156-0.40234 1.2031-0.60156 1.9023v0.10156c0 0.10156 0 0.5 0.60156 0.5 0.10156 0 0.19922 0 0.19922-0.10156 0.19922-0.19922 0.5-0.40234 0.80078-0.5 0.30078-0.19922 0.60156-0.40234 0.90234-0.60156 0.10156-0.10156 0.19922-0.19922 0.5 0 0.30078 0.19922 0.5 0.40234 0.80078 0.60156 0.19922 0.19922 0.5 0.30078 0.70312 0.5 0.10156 0.10156 0.19922 0.10156 0.19922 0.10156h0.19922c0.10156-0.10156 0.19922-0.19922 0.19922-0.40234-0.10156-0.70312-0.30078-1.5039-0.60156-2.2031v-0.10156h0.10156c0.60156-0.40234 1.1016-0.80078 1.6016-1.2031 0.10156-0.10156 0.10156-0.19922 0.10156-0.30078 0-0.19922-0.10156-0.30078-0.10156-0.30078-0.29297-0.19531-0.69141-0.19531-1.0938-0.19531z"/>
  <path d="m63.629 64.93h-2.1055-0.10156v-0.10156c-0.10156-0.40234-0.19922-0.70312-0.40234-1.1016-0.10156-0.30078-0.19922-0.70312-0.30078-1.0039 0-0.19922-0.19922-0.30078-0.30078-0.30078-0.19922 0-0.30078 0.10156-0.40234 0.19922-0.19922 0.60156-0.40234 1.1016-0.5 1.5039l-0.19922 0.60156c-0.10156 0.19922-0.10156 0.19922-0.30078 0.19922h-2.1055c-0.19922 0-0.30078 0.10156-0.40234 0.30078-0.10156 0.19922 0 0.30078 0.10156 0.40234 0.30078 0.19922 0.5 0.40234 0.80078 0.5 0.40234 0.30078 0.70312 0.5 1.1016 0.80078 0 0 0.10156 0 0.10156 0.10156h0.19922c-0.30078 0.5-0.40234 1.1016-0.60156 1.6016l-0.29688 0.50391c0 0.10156 0 0.30078 0.10156 0.40234 0.10156 0.10156 0.30078 0.10156 0.40234 0.10156 0.60156-0.30078 1.2031-0.70312 1.8047-1.2031l0.10156-0.10156s0.10156 0 0.19922 0.10156c0.30078 0.19922 0.5 0.40234 0.80078 0.60156 0.30078 0.19922 0.5 0.40234 0.80078 0.60156 0.10156 0 0.10156 0.10156 0.19922 0.10156h0.10156 0.10156c0.19922 0 0.30078-0.19922 0.30078-0.40234v-0.19922c-0.19922-0.70312-0.40234-1.4023-0.60156-1.9023v-0.19922l0.10156-0.10156c0.60156-0.30078 1.2031-0.70312 1.7031-1.1016 0.10156-0.10156 0.10156-0.19922 0.10156-0.30078 0-0.10156 0-0.19922-0.10156-0.19922-0.003906-0.20703-0.20312-0.40625-0.40234-0.40625z"/>
  <path d="m75.051 45.891c0-0.19922-0.19922-0.30078-0.40234-0.30078h-2.0039c-0.30078 0-0.30078 0-0.30078-0.19922-0.10156-0.60156-0.30078-1.2031-0.60156-2.0039-0.10156-0.19922-0.19922-0.19922-0.40234-0.19922-0.19922 0-0.30078 0.19922-0.30078 0.30078 0 0.30078-0.19922 0.70312-0.30078 1.0039-0.10156 0.30078-0.19922 0.60156-0.19922 0.90234-0.10156 0.30078-0.10156 0.30078-0.40234 0.30078h-2.0039c-0.19922 0-0.30078 0.10156-0.40234 0.30078 0 0.19922 0 0.30078 0.19922 0.40234 0.30078 0.19922 0.5 0.40234 0.80078 0.60156s0.5 0.40234 0.80078 0.60156c0.40234 0.19922 0.30078 0.30078 0.10156 0.70313-0.10156 0.30078-0.19922 0.60156-0.30078 0.80078-0.10156 0.30078-0.19922 0.60156-0.30078 0.90234 0 0.10156 0 0.30078 0.10156 0.40234 0.10156 0.10156 0.19922 0.10156 0.30078 0.10156h0.10156c0.70312-0.30078 1.3008-0.70312 2.0039-1.3008h0.10156c0.30078 0.30078 0.70312 0.60156 1.0039 0.80078 0.19922 0.10156 0.40234 0.30078 0.60156 0.40234 0.10156 0.10156 0.30078 0.10156 0.40234 0 0.10156 0 0.10156-0.10156 0.10156-0.10156l0.10156-0.10156c0.10156-0.10156 0.10156-0.19922 0.10156-0.30078-0.10156-0.19922-0.10156-0.40234-0.19922-0.60156-0.10156-0.40234-0.19922-0.80078-0.40234-1.2031-0.10156-0.30078-0.10156-0.30078 0.10156-0.5 0.30078-0.19922 0.5-0.30078 0.80078-0.5 0.19922-0.19922 0.5-0.30078 0.70312-0.5 0.10156-0.10156 0.10156-0.19922 0.10156-0.30078 0.089844-0.3125-0.007813-0.41406-0.007813-0.41406z"/>
  <path d="m53.105 23.648c-0.70312-0.10156-1.3008-0.10156-2.0039-0.10156-0.40234 0-0.5-0.10156-0.60156-0.40234-0.10156-0.60156-0.30078-1.1016-0.5-1.8047l-0.10156-0.19922c-0.10156-0.30078-0.60156-0.30078-0.70313 0-0.30078 0.80078-0.5 1.4023-0.70312 2.2031 0 0.10156-0.10156 0.19922-0.10156 0.19922h-0.40234l-1.8945 0.003906c-0.19922 0-0.30078 0.10156-0.30078 0.19922-0.10156 0.10156 0 0.30078 0.10156 0.40234 0.60156 0.60156 1.1016 1.0039 1.7031 1.3008l0.30078 0.19922-0.10156 0.19922-0.70312 1.9062c0 0.10156 0 0.30078 0.10156 0.40234 0.10156 0.10156 0.30078 0.10156 0.40234 0.10156 0.70312-0.30078 1.3008-0.70312 1.8047-1.1016 0.10156-0.10156 0.19922-0.10156 0.19922-0.10156l0.10156 0.10156c0.30078 0.30078 0.70312 0.60156 1.0039 0.80078 0.19922 0.10156 0.40234 0.30078 0.60156 0.40234 0.10156 0.10156 0.19922 0.10156 0.19922 0.10156h0.19922c0.10156-0.10156 0.19922-0.19922 0.19922-0.40234-0.10156-0.60156-0.30078-1.3008-0.5-2.1055v-0.10156-0.10156h0.10156c0.30078-0.19922 0.60156-0.40234 0.90234-0.60156 0.30078-0.19922 0.5-0.40234 0.80078-0.60156 0.10156-0.10156 0.19922-0.19922 0.19922-0.40234-0.10547-0.29688-0.20312-0.39844-0.30469-0.49609z"/>
  <path d="m65.531 35.672c0.30078 0.19922 0.60156 0.5 1.0039 0.70312 0.30078 0.40234 0.30078 0.40234 0.19922 0.5l-0.60156 1.8047c0 0.10156 0 0.30078 0.10156 0.40234 0.10156 0.10156 0.19922 0.10156 0.19922 0.10156h0.19922c0.60156-0.30078 1.2031-0.70312 1.8047-1.1016 0.30078-0.19922 0.30078-0.19922 0.5 0 0.30078 0.19922 0.5 0.40234 0.80078 0.60156 0.19922 0.19922 0.5 0.30078 0.70312 0.5 0.10156 0.10156 0.30078 0.10156 0.40234 0 0.10156-0.10156 0.19922-0.19922 0.19922-0.40234-0.10156-0.70312-0.30078-1.4023-0.5-2.0039-0.10156-0.30078-0.10156-0.30078 0.10156-0.5 0.30078-0.19922 0.5-0.30078 0.80078-0.5 0.19922-0.19922 0.5-0.30078 0.70313-0.5 0.10156-0.10156 0.19922-0.19922 0.19922-0.30078 0-0.10156 0-0.19922-0.10156-0.30078l-0.10156-0.10547c-0.10156-0.10156-0.19922-0.10156-0.30078-0.10156h-2.1055c-0.10156 0-0.19922 0-0.19922-0.19922-0.10156-0.19922-0.10156-0.40234-0.19922-0.60156-0.10156-0.5-0.30078-1.0039-0.5-1.5039-0.10156-0.30078-0.60156-0.30078-0.70312 0-0.10156 0.19922-0.10156 0.40234-0.19922 0.60156-0.19922 0.60156-0.40234 1.0039-0.5 1.6016-0.10156 0.19922-0.10156 0.19922-0.30078 0.19922l-2.0078 0.003906c-0.19922 0-0.40234 0.19922-0.40234 0.40234v0.10156c0 0.10156 0.10156 0.19922 0.19922 0.30078 0.20312 0.097656 0.40625 0.19531 0.60547 0.29688z"/>
  <path d="m33.766 56.512h-2.0039-0.10156s-0.10156 0-0.10156-0.30078c-0.19922-0.60156-0.40234-1.2031-0.70312-2.0039-0.10156-0.19922-0.19922-0.19922-0.40234-0.19922-0.19922 0-0.30078 0.10156-0.30078 0.30078-0.10156 0.5-0.30078 0.80078-0.40234 1.2031-0.10156 0.19922-0.10156 0.40234-0.19922 0.60156-0.10156 0.10156-0.10156 0.30078-0.10156 0.40234s-0.10156 0.19922 0 0.19922h-0.60156-1.8047c-0.19922 0-0.30078 0.10156-0.40234 0.19922-0.10156 0.10156 0 0.30078 0.10156 0.40234 0.40234 0.30078 0.70312 0.60156 1.0039 0.80078 0.19922 0.19922 0.5 0.30078 0.70312 0.5 0.19922 0.10156 0.10156 0.19922 0.10156 0.30078 0 0 0 0.10156-0.10156 0.10156-0.19922 0.60156-0.40234 1.2031-0.60156 1.9023v0.10156c0 0.10156 0 0.5 0.60156 0.5 0.10156 0 0.19922 0 0.19922-0.10156 0.5-0.40234 0.90234-0.60156 1.3008-0.90234l0.30078-0.19922 0.10156-0.10156 0.19922 0.10156c0.30078 0.19922 0.5 0.40234 0.80078 0.60156 0.30078 0.19922 0.5 0.40234 0.80078 0.60156 0.10156 0.10156 0.19922 0.10156 0.19922 0.10156h0.19922c0.10156-0.10156 0.19922-0.19922 0.19922-0.40234-0.10156-0.70312-0.30078-1.4023-0.5-2.0039-0.10156-0.40234-0.10156-0.40234 0.19922-0.70312 0.30078-0.19922 0.5-0.30078 0.80078-0.5 0.19922-0.19922 0.5-0.30078 0.70312-0.5 0.10156-0.10156 0.19922-0.19922 0.19922-0.30078 0-0.19922-0.10156-0.30078-0.10156-0.30078 0.015625-0.30078-0.082031-0.40234-0.28516-0.40234z"/>
  <path d="m27.453 35.773c0.19922 0.19922 0.40234 0.30078 0.70312 0.5 0.5 0.30078 0.5 0.40234 0.40234 0.60156-0.19922 0.5-0.40234 1.1016-0.60156 1.7031 0 0.10156 0 0.19922 0.10156 0.30078l0.10156 0.10156c0 0.10156 0.10156 0.19922 0.19922 0.19922h0.10156c0.10156 0 0.10156 0 0.19922-0.10156 0.60156-0.40234 1.1016-0.80078 1.7031-1.2031 0.10156-0.10156 0.19922-0.19922 0.40234 0 0.30078 0.19922 0.5 0.40234 0.80078 0.60156 0.19922 0.19922 0.5 0.30078 0.70312 0.5 0.10156 0.10156 0.30078 0.10156 0.40234 0 0.10156-0.10156 0.19922-0.19922 0.19922-0.40234-0.10156-0.70312-0.30078-1.5039-0.60156-2.2031v-0.10156h0.10156c0.60156-0.40234 1.1016-0.80078 1.6016-1.2031 0.10156-0.10156 0.10156-0.19922 0.10156-0.30078 0-0.19922-0.10156-0.30078-0.10156-0.30078-0.10156-0.10156-0.19922-0.30078-0.40234-0.30078h-2.0039c-0.10156 0-0.19922 0-0.19922-0.19922-0.19922-0.70312-0.40234-1.4023-0.70313-2.1055-0.10156-0.10156-0.19922-0.30078-0.40234-0.19922-0.19922 0-0.30078 0.10156-0.30078 0.30078-0.10156 0.30078-0.19922 0.5-0.30078 0.80078-0.10156 0.40234-0.30078 0.80078-0.30078 1.1016-0.19922 0.5-0.30078 0.5-0.60156 0.40234-0.40234-0.10156-0.80078-0.10156-1.2031 0h-0.70313c-0.19922 0-0.30078 0.10156-0.40234 0.19922-0.10156 0.10156 0 0.30078 0.10156 0.40234 0.30469 0.50391 0.60547 0.70312 0.90234 0.90625z"/>
  <path d="m52.605 67.734h-2.0039c-0.10156 0-0.19922 0-0.19922-0.19922-0.10156-0.19922-0.10156-0.40234-0.10156-0.5-0.10156-0.5-0.19922-1.0039-0.5-1.4023-0.10156-0.30078-0.5-0.30078-0.70312 0-0.30078 0.60156-0.60156 1.3008-0.70312 2.0039 0 0.19922-0.10156 0.19922-0.30078 0.19922h-2.0039c-0.19922 0-0.30078 0.10156-0.40234 0.19922-0.10156 0.10156 0 0.30078 0.10156 0.40234 0.60156 0.5 1.1016 0.90234 1.7031 1.2031 0.19922 0.30078 0.19922 0.5 0.10156 0.60156-0.19922 0.60156-0.40234 1.2031-0.60156 1.7031-0.10156 0.10156 0 0.30078 0.10156 0.40234 0.10156 0.10156 0.19922 0.10156 0.30078 0.10156h0.10156c0.70312-0.30078 1.3008-0.70312 2.0039-1.3008l0.10156 0.10156c0.30078 0.19922 0.60156 0.40234 0.80078 0.60156 0.30078 0.19922 0.60156 0.40234 0.90234 0.60156 0.10156 0.10156 0.30078 0.10156 0.40234 0 0.10156-0.10156 0.19922-0.19922 0.19922-0.40234-0.10156-0.70312-0.30078-1.5039-0.60156-2.2031-0.10156-0.19922-0.10156-0.19922 0-0.19922 0.60156-0.30078 1.2031-0.70313 1.7031-1.1016 0.10156-0.10156 0.10156-0.19922 0.10156-0.30078-0.003906-0.30859-0.30469-0.51172-0.50391-0.51172z"/>
  <path d="m1.5039 10.723v74.25h96.992v-74.25zm3.5078 70.742v-67.238h90.082v67.234z"/>
 </g>
<text x="0.0" y="117.5" font-size="5.0" font-weight="bold" font-family="Arbeit Regular, Helvetica, Arial-Unicode, Arial, Sans-serif" fill="#000000">Created by Zach Hainsworth</text><text x="0.0" y="122.5" font-size="5.0" font-weight="bold" font-family="Arbeit Regular, Helvetica, Arial-Unicode, Arial, Sans-serif" fill="#000000">from Noun Project</text></svg>