<svg xmlns="http://www.w3.org/2000/svg" version="1.1" viewBox="-5.0 -10.0 110.0 135.0">
 <path d="m96.75 28.277-13.375 5.6719v15.457c-0.003906 0.38672-0.23438 0.75781-0.61328 0.91797l-6.6719 2.8281c-0.14062 0.078125-0.30469 0.12109-0.47656 0.12109-0.55078 0-1-0.44922-1-1v-14.609l-12.625 5.3555c0.09375 0.15234 0.14844 0.33203 0.14844 0.52344v44.133l34.613-14.68zm-71.23 36.301h-5.7031c-0.82812 0-1.5-0.67188-1.5-1.5s0.67188-1.5 1.5-1.5h12.113c0.82812 0 1.5-0.67188 1.5-1.5s-0.67188-1.5-1.5-1.5h-6.4102v-3.8984h-20.77c-0.82812 0-1.5-0.67188-1.5-1.5 0-0.82813 0.67188-1.5 1.5-1.5h38.699c0.82812 0 1.5-0.67188 1.5-1.5 0-0.82813-0.67188-1.5-1.5-1.5h-17.93v-3.8984h-12.238c-0.82812 0-1.5-0.67188-1.5-1.5s0.67188-1.5 1.5-1.5h15.422c0.82812 0 1.5-0.67188 1.5-1.5s-0.67188-1.5-1.5-1.5h-3.1836v-10.508l34.766 14.746c-0.09375 0.15234-0.14844 0.33203-0.14844 0.52344v44.133l-34.617-14.68v-8.4219zm55.855-29.777-4.7617 2.0195 0.003907 13.949 4.7617-2.0195v-13.953zm-39.266-14.41 33.508 14.688 4.2383-1.7969-33.512-14.688zm6.7578-2.8672 33.512 14.688 12.82-5.4375-34.066-14.453zm24.223 18.625-33.508-14.688-12.52 5.3086 34.066 14.449 11.961-5.0742z"/>
<text x="0.0" y="117.5" font-size="5.0" font-weight="bold" font-family="Arbeit Regular, Helvetica, Arial-Unicode, Arial, Sans-serif" fill="#000000">Created by Soetarman Atmodjo</text><text x="0.0" y="122.5" font-size="5.0" font-weight="bold" font-family="Arbeit Regular, Helvetica, Arial-Unicode, Arial, Sans-serif" fill="#000000">from Noun Project</text></svg>